<?xml version="1.0" standalone="no"?>
<!DOCTYPE svg PUBLIC "-//W3C//DTD SVG 20010904//EN"
 "http://www.w3.org/TR/2001/REC-SVG-20010904/DTD/svg10.dtd">
<svg version="1.0" xmlns="http://www.w3.org/2000/svg"
 width="24.000000pt" height="24.000000pt" viewBox="0 0 24.000000 24.000000"
 preserveAspectRatio="xMidYMid meet">

<g transform="translate(0.000000,24.000000) scale(0.100000,-0.100000)"
fill="#000000" stroke="none">
<path d="M12 228 c-16 -16 -16 -200 0 -216 16 -16 200 -16 216 0 16 16 16 200
0 216 -16 16 -200 16 -216 0z m66 -42 c-2 -13 -10 -21 -23 -21 -23 0 -33 34
-14 45 20 13 40 -1 37 -24z m123 -47 c28 -28 24 -114 -6 -114 -16 0 -21 8 -23
35 -1 19 -5 42 -8 50 -9 25 -34 -18 -34 -58 0 -26 -4 -33 -17 -30 -15 3 -19
16 -21 65 l-3 62 38 4 c21 2 41 4 46 5 4 1 16 -7 28 -19z m-123 -51 c-3 -55
-5 -63 -23 -63 -18 0 -20 8 -23 63 -3 61 -2 62 23 62 25 0 26 -1 23 -62z"/>
</g>
</svg>
